<svg xmlns="http://www.w3.org/2000/svg" viewBox="0 0 320 291.9" enable-background="new 0 0 320 291.9"><path d="M52.7 182.1v-74.3l.4-2.1c.3-8.7.7-17.4 2.8-25.9 4.8-19.2 16-33.2 34.3-41.1 9.9-4.3 20.5-5.5 31.2-6 2.3-.1 4.7-.3 7-.5h74.3l2.1.4c8.7.3 17.4.7 25.9 2.8 19.2 4.8 33.2 16 41.1 34.3 4.3 9.9 5.5 20.5 6 31.2.1 2.3.3 4.7.5 7v74.3l-.4 2.1c-.3 8.7-.7 17.4-2.8 25.9-4.8 19.2-16 33.2-34.3 41.1-9.9 4.3-20.5 5.5-31.2 6-2.3.1-4.7.3-7 .5h-74.3l-2.1-.4c-8.7-.3-17.4-.7-25.9-2.8-19.2-4.8-33.2-16-41.1-34.3-4.3-9.9-5.5-20.5-6-31.2 0-2.3-.3-4.6-.5-7zm205.4-37.1h-.3c0-9.4.2-18.8-.1-28.2-.2-8.9-.6-17.7-1.5-26.5-.9-8.4-3.8-16.2-9.5-22.7-8-9.2-18.5-13-30.1-13.7-13.2-.8-26.5-1-39.8-1.2-13.2-.2-26.4-.1-39.6.2-8.9.2-17.7.6-26.5 1.5-8.4.9-16.2 3.8-22.7 9.5-9.2 8-13 18.5-13.7 30.1-.8 13.2-1 26.5-1.2 39.8-.1 13-.1 26.2.2 39.4.2 8.9.6 17.7 1.5 26.5.9 8.4 3.8 16.2 9.5 22.7 8 9.2 18.5 13 30.1 13.7 13.2.8 26.5 1 39.8 1.2 13.2.2 26.4.2 39.6-.2 9.7-.3 19.6-.4 29.2-1.9 16.4-2.6 27.5-12.1 31.9-28.3 1.4-5.3 2.2-10.8 2.4-16.3.4-15.2.5-30.4.8-45.6zm-34.6 0c0 32.1-26 58-58.1 57.9-31.9 0-57.8-26-57.8-58 0-32.1 26-58 58.1-57.9 31.9.1 57.8 26 57.8 58zm-58 37.5c20.5 0 37.5-16.8 37.5-37.1 0-20.9-16.6-37.9-37.1-37.9-21 0-37.9 16.7-37.9 37.4 0 20.8 16.8 37.6 37.5 37.6zm60.1-111.3c7.6 0 13.7 6 13.7 13.5s-6.1 13.7-13.6 13.7-13.6-6.2-13.6-13.7c0-7.3 6.1-13.4 13.5-13.5z"/></svg>